<?xml version="1.0" encoding="UTF-8"?>
<svg width="32" height="32" version="1.1" viewBox="0 0 32 32" xml:space="preserve" xmlns="http://www.w3.org/2000/svg"><g transform="matrix(.094583 0 0 -.094583 -5.4582 59.417)"><g transform="matrix(5.65,0,0,5.65,-1700,-211)"><g transform="matrix(1,0,0,-1,359,133)"><path d="m-2.26-5.52c-0.725-1.99-2.93-3.02-4.92-2.29-1.99 0.726-3.02 2.93-2.29 4.92l14 38.5c0.726 1.99 2.93 3.02 4.92 2.29 1.99-0.725 3.02-2.93 2.3-4.92z" fill="#f58113"/></g><g transform="matrix(.342 .94 .94 -.342 105 -158)"><g transform="translate(317,108)"><path d="m0 0c-0.724-1.99-2.93-3.02-4.92-2.29-1.99 0.725-3.02 2.93-2.29 4.92l7.75 21.3c0.726 1.99 2.93 3.02 4.92 2.3 1.99-0.725 3.02-2.93 2.3-4.92z" fill="#4d88b5"/></g><g transform="translate(329,108)"><path d="m0 0c-0.724-1.99-2.93-3.02-4.92-2.29-1.99 0.725-3.02 2.93-2.29 4.92l7.75 21.3c0.726 1.99 2.93 3.02 4.92 2.3 1.99-0.725 3.02-2.93 2.29-4.92z" fill="#65a9d8"/></g><g transform="translate(340,108)"><path d="m0 0c-0.724-1.99-2.93-3.02-4.92-2.29-1.99 0.725-3.02 2.93-2.3 4.92l7.75 21.3c0.726 1.99 2.93 3.02 4.92 2.3 1.99-0.725 3.02-2.93 2.3-4.92z" fill="#72b38d"/></g></g></g></g></svg>
